<svg width="521" height="390" viewBox="0 0 521 390" fill="none" xmlns="http://www.w3.org/2000/svg">
<g style="mix-blend-mode:difference">
<path fill-rule="evenodd" clip-rule="evenodd" d="M45.3887 194.9C45.3887 302.409 151.724 389.562 282.896 389.562C414.067 389.562 520.402 302.409 520.402 194.9C520.402 87.3908 414.067 0.238022 282.896 0.238022C151.724 0.238022 45.3887 87.3908 45.3887 194.9Z" fill="black"/>
<g style="mix-blend-mode:difference">
<g style="mix-blend-mode:difference" opacity="0.3">
<path d="M99.4092 195.984C99.4092 288.492 174.402 363.484 266.909 363.484C359.417 363.484 434.409 288.492 434.409 195.984C434.409 103.476 359.417 28.4838 266.909 28.4838C174.402 28.4838 99.4092 103.476 99.4092 195.984Z" stroke="white" stroke-opacity="0.2" stroke-width="1.8628"/>
</g>
</g>
<g style="mix-blend-mode:difference">
<path opacity="0.4" d="M155.548 218.186C165.748 270.211 211.593 309.463 266.607 309.463C329.112 309.463 379.782 258.793 379.782 196.287C379.782 133.782 329.112 83.1115 266.607 83.1115C223.471 83.1115 185.972 107.243 166.873 142.743" stroke="white" stroke-opacity="0.6" stroke-width="3.72559"/>
</g>
<g style="mix-blend-mode:difference">
<path opacity="0.6" d="M200.001 194.987C200.001 232.49 230.403 262.893 267.907 262.893C305.41 262.893 335.812 232.49 335.812 194.987C335.812 157.484 305.41 127.081 267.907 127.081C230.403 127.081 200.001 157.484 200.001 194.987Z" stroke="white" stroke-opacity="0.8" stroke-width="6.67346"/>
</g>
<g style="mix-blend-mode:difference">
<path fill-rule="evenodd" clip-rule="evenodd" d="M240.98 196.199C240.98 210.399 252.492 221.91 266.692 221.91C280.892 221.91 292.403 210.399 292.403 196.199C292.403 181.999 280.892 170.487 266.692 170.487C252.492 170.487 240.98 181.999 240.98 196.199Z" fill="white"/>
</g>
<path d="M35.2167 225.716C32.8034 223.684 31.4517 220.853 31.1614 217.224H2.20228C2.23859 224.518 4.04403 230.896 7.61863 236.358C11.1932 241.819 16.2647 246.056 22.833 249.068C29.4013 252.08 37.1854 253.586 46.1851 253.586C55.0034 253.586 62.8146 252.098 69.6189 249.122C76.4231 246.147 81.7395 242.001 85.568 236.684C89.3965 231.368 91.2926 225.171 91.2563 218.095C91.2926 209.386 88.4711 202.518 82.7918 197.492C77.1126 192.466 69.3376 188.882 59.467 186.741L48.3625 184.346C42.157 183.004 37.8204 181.489 35.3528 179.801C32.8851 178.114 31.6331 176 31.5968 173.46C31.6331 170.702 32.8942 168.452 35.38 166.71C37.8658 164.968 41.54 164.097 46.4028 164.097C52.2091 164.097 56.7543 165.43 60.0386 168.098C63.3227 170.765 65.0918 174.657 65.3458 179.774H94.0869C94.0506 170.448 92.0456 162.8 88.072 156.83C84.0983 150.86 78.5098 146.442 71.3063 143.575C64.1029 140.708 55.6566 139.275 45.9674 139.275C31.8509 139.275 20.7826 142.223 12.7627 148.12C4.74251 154.017 0.714547 162.464 0.678754 173.46C0.715065 181.951 3.45475 189.109 8.89782 194.934C14.3414 200.758 23.2142 204.995 35.5161 207.644L44.661 209.603C49.9229 210.728 53.7786 212.126 56.2281 213.795C58.6777 215.464 59.8299 217.623 59.6847 220.272C59.6484 222.74 58.5598 224.772 56.4187 226.369C54.2776 227.966 50.8664 228.764 46.1851 228.764C41.2861 228.764 37.6299 227.748 35.2167 225.716Z" fill="white"/>
<path d="M432.849 164.965V140.579H335.956V164.965H369.488V252.06H399.318V164.965H432.849Z" fill="white"/>
<path fill-rule="evenodd" clip-rule="evenodd" d="M105.627 140.581V252.062H135.893V218.966H152.658C161.15 218.966 168.58 217.387 174.949 214.23C181.318 211.072 186.271 206.573 189.81 200.73C193.347 194.888 195.116 187.975 195.116 179.991C195.116 172.08 193.393 165.167 189.945 159.252C186.498 153.336 181.671 148.746 175.466 145.48C169.261 142.214 162.021 140.581 153.747 140.581H105.627ZM146.561 195.45H135.893V164.749H146.561C151.86 164.749 156.015 166.092 159.027 168.777C162.039 171.463 163.545 175.201 163.545 179.991C163.545 184.745 162.039 188.51 159.027 191.286C156.015 194.062 151.86 195.45 146.561 195.45Z" fill="white"/>
</g>
</svg>
